<?xml version="1.0" encoding="utf-8"?>
<!-- Generator: Adobe Illustrator 16.0.0, SVG Export Plug-In . SVG Version: 6.00 Build 0)  -->
<!DOCTYPE svg PUBLIC "-//W3C//DTD SVG 1.1//EN" "http://www.w3.org/Graphics/SVG/1.1/DTD/svg11.dtd">
<svg version="1.1"
	 id="svg2" xmlns:dc="http://purl.org/dc/elements/1.1/" xmlns:cc="http://creativecommons.org/ns#" xmlns:rdf="http://www.w3.org/1999/02/22-rdf-syntax-ns#" xmlns:svg="http://www.w3.org/2000/svg" xmlns:sodipodi="http://sodipodi.sourceforge.net/DTD/sodipodi-0.dtd" xmlns:inkscape="http://www.inkscape.org/namespaces/inkscape" sodipodi:docname="logoPal2.svg" inkscape:version="0.91 r"
	 xmlns="http://www.w3.org/2000/svg" xmlns:xlink="http://www.w3.org/1999/xlink" x="0px" y="0px" width="137.188px"
	 height="101.8px" viewBox="0 0 137.188 101.8" enable-background="new 0 0 137.188 101.8" xml:space="preserve">
<sodipodi:namedview  fit-margin-left="-100" fit-margin-top="-50.7" inkscape:cy="50.900002" inkscape:cx="52.199408" inkscape:zoom="9.0275046" showgrid="false" guidetolerance="10" gridtolerance="10" objecttolerance="10" borderopacity="1" pagecolor="#ffffff" bordercolor="#666666" id="namedview4" fit-margin-bottom="-50" fit-margin-right="-100" inkscape:current-layer="g10" inkscape:window-maximized="1" inkscape:window-y="24" inkscape:window-x="67" inkscape:snap-page="true" inkscape:snap-grids="false" inkscape:window-height="1056" inkscape:window-width="1853" inkscape:pageshadow="2" inkscape:pageopacity="0">
	</sodipodi:namedview>
<g id="g10" transform="matrix(1.25,0,0,-1.25,-100,151.8)" inkscape:label="Carte d&apos;affaires" inkscape:groupmode="layer">
	<path id="path12" inkscape:connector-curvature="0" fill="none" d="M0,0h269.75v162H0V0z"/>
	<g enable-background="new    ">
		<path fill="#FFFFFF" d="M91.696,58.08v7.565h2.854c0.502,0,0.886-0.024,1.151-0.072c0.371-0.063,0.683-0.18,0.934-0.354
			c0.251-0.174,0.453-0.417,0.606-0.73c0.153-0.313,0.23-0.657,0.23-1.031c0-0.644-0.205-1.188-0.614-1.634
			c-0.409-0.446-1.149-0.668-2.219-0.668h-1.94V58.08H91.696z M92.698,62.048h1.955c0.647,0,1.106,0.12,1.378,0.361
			c0.272,0.241,0.408,0.58,0.408,1.017c0,0.316-0.08,0.587-0.24,0.813c-0.16,0.225-0.371,0.374-0.632,0.447
			c-0.169,0.044-0.48,0.066-0.934,0.066h-1.935V62.048z"/>
	</g>
	<g enable-background="new    ">
		<path fill="#FFFFFF" d="M98.291,58.08v7.565h1.001v-3.106h3.932v3.106h1.001V58.08h-1.001v3.566h-3.932V58.08H98.291z"/>
	</g>
	<g enable-background="new    ">
		<path fill="#FFFFFF" d="M108.221,58.08v3.204l-2.916,4.361h1.218l1.491-2.281c0.275-0.427,0.532-0.853,0.769-1.28
			c0.227,0.395,0.502,0.841,0.825,1.337l1.466,2.224h1.166l-3.018-4.361V58.08H108.221z"/>
	</g>
	<g enable-background="new    ">
		<path fill="#FFFFFF" d="M112.239,60.511l0.945,0.083c0.045-0.379,0.149-0.689,0.312-0.931c0.163-0.243,0.417-0.439,0.761-0.589
			c0.344-0.149,0.731-0.224,1.161-0.224c0.382,0,0.719,0.057,1.011,0.17c0.292,0.113,0.51,0.27,0.653,0.467
			c0.143,0.198,0.214,0.413,0.214,0.648c0,0.237-0.069,0.445-0.206,0.622c-0.138,0.177-0.365,0.326-0.681,0.446
			c-0.203,0.079-0.652,0.202-1.347,0.369c-0.695,0.167-1.182,0.324-1.46,0.473c-0.361,0.189-0.63,0.423-0.808,0.704
			c-0.177,0.28-0.266,0.595-0.266,0.941c0,0.383,0.108,0.739,0.325,1.071s0.533,0.584,0.95,0.755
			c0.416,0.173,0.879,0.259,1.388,0.259c0.561,0,1.055-0.09,1.484-0.271c0.429-0.18,0.758-0.446,0.988-0.797
			c0.23-0.352,0.354-0.748,0.371-1.192l-0.96-0.072c-0.052,0.478-0.226,0.839-0.524,1.083c-0.298,0.245-0.737,0.367-1.318,0.367
			c-0.605,0-1.047-0.111-1.323-0.333c-0.277-0.222-0.416-0.49-0.416-0.803c0-0.272,0.098-0.495,0.294-0.67
			c0.193-0.176,0.696-0.355,1.509-0.539c0.814-0.184,1.372-0.345,1.675-0.483c0.44-0.203,0.765-0.46,0.975-0.772
			c0.21-0.311,0.315-0.67,0.315-1.075c0-0.403-0.115-0.782-0.346-1.138c-0.23-0.355-0.562-0.633-0.993-0.83
			c-0.432-0.198-0.918-0.297-1.458-0.297c-0.684,0-1.258,0.1-1.721,0.299c-0.463,0.199-0.826,0.499-1.089,0.901
			C112.391,59.551,112.252,60.004,112.239,60.511z"/>
	</g>
	<g enable-background="new    ">
		<path fill="#FFFFFF" d="M119.228,58.08v7.565h1.001V58.08H119.228z"/>
	</g>
	<g enable-background="new    ">
		<path fill="#FFFFFF" d="M121.501,61.765c0,1.255,0.337,2.238,1.011,2.949c0.674,0.71,1.545,1.066,2.611,1.066
			c0.698,0,1.328-0.167,1.889-0.501c0.561-0.334,0.988-0.799,1.282-1.396c0.294-0.597,0.441-1.273,0.441-2.03
			c0-0.767-0.155-1.453-0.464-2.059c-0.309-0.605-0.748-1.064-1.316-1.375c-0.568-0.312-1.18-0.467-1.837-0.467
			c-0.712,0-1.348,0.172-1.909,0.516c-0.561,0.344-0.986,0.814-1.275,1.409C121.645,60.472,121.501,61.101,121.501,61.765z
			 M122.533,61.749c0-0.912,0.245-1.63,0.735-2.154c0.49-0.525,1.105-0.788,1.845-0.788c0.753,0,1.373,0.266,1.86,0.795
			c0.487,0.53,0.73,1.281,0.73,2.255c0,0.616-0.104,1.153-0.312,1.613s-0.512,0.816-0.913,1.068
			c-0.401,0.252-0.851,0.379-1.35,0.379c-0.709,0-1.318-0.243-1.829-0.73C122.788,63.701,122.533,62.887,122.533,61.749z"/>
	</g>
	<g enable-background="new    ">
		<path fill="#FFFFFF" d="M131.338,58.08v6.672h-2.492v0.893h5.996v-0.893h-2.503V58.08H131.338z"/>
	</g>
	<g enable-background="new    ">
		<path fill="#FFFFFF" d="M135.954,58.08v7.565h1.001v-3.106h3.933v3.106h1.001V58.08h-1.001v3.566h-3.933V58.08H135.954z"/>
	</g>
	<g enable-background="new    ">
		<path fill="#FFFFFF" d="M143.775,58.08v7.565h5.47v-0.893h-4.468v-2.316h4.184v-0.887h-4.184v-2.575h4.644V58.08H143.775z
			 M145.839,66.109l0.686,1.445h1.218l-1.135-1.445H145.839z"/>
	</g>
	<g enable-background="new    ">
		<path fill="#FFFFFF" d="M150.216,58.08v7.565h3.355c0.673,0,1.186-0.068,1.538-0.204c0.351-0.136,0.631-0.376,0.841-0.72
			c0.21-0.345,0.316-0.725,0.316-1.141c0-0.537-0.174-0.989-0.522-1.357c-0.347-0.368-0.884-0.602-1.609-0.702
			c0.264-0.127,0.466-0.252,0.603-0.377c0.292-0.268,0.57-0.603,0.831-1.006l1.316-2.059h-1.259l-1.001,1.574
			c-0.293,0.453-0.534,0.802-0.723,1.042c-0.189,0.241-0.358,0.409-0.508,0.505c-0.15,0.096-0.302,0.163-0.457,0.201
			c-0.113,0.025-0.299,0.037-0.557,0.037h-1.161V58.08H150.216z M151.217,62.306h2.152c0.458,0,0.816,0.048,1.073,0.142
			s0.454,0.246,0.588,0.455c0.134,0.208,0.201,0.434,0.201,0.678c0,0.358-0.13,0.652-0.389,0.883c-0.26,0.23-0.67,0.345-1.231,0.345
			h-2.394V62.306z"/>
	</g>
	<g enable-background="new    ">
		<path fill="#FFFFFF" d="M156.313,58.08l2.905,7.565h1.078l3.096-7.565h-1.14l-0.883,2.291h-3.163l-0.83-2.291H156.313z
			 M158.496,61.186h2.565l-0.79,2.095c-0.241,0.637-0.42,1.159-0.537,1.568c-0.096-0.484-0.232-0.966-0.408-1.444L158.496,61.186z"
			/>
	</g>
	<g enable-background="new    ">
		<path fill="#FFFFFF" d="M164.309,58.08v7.565h2.853c0.502,0,0.886-0.024,1.151-0.072c0.371-0.063,0.683-0.18,0.934-0.354
			c0.252-0.174,0.453-0.417,0.606-0.73c0.153-0.313,0.23-0.657,0.23-1.031c0-0.644-0.205-1.188-0.614-1.634
			c-0.409-0.446-1.148-0.668-2.219-0.668h-1.94V58.08H164.309z M165.31,62.048h1.955c0.647,0,1.106,0.12,1.378,0.361
			s0.408,0.58,0.408,1.017c0,0.316-0.08,0.587-0.241,0.813c-0.159,0.225-0.37,0.374-0.631,0.447
			c-0.169,0.044-0.48,0.066-0.934,0.066h-1.935V62.048z"/>
	</g>
	<g enable-background="new    ">
		<path fill="#FFFFFF" d="M171.042,58.08v7.565h1.001V58.08H171.042z"/>
	</g>
	<g enable-background="new    ">
		<path fill="#FFFFFF" d="M173.64,58.08v7.565h5.47v-0.893h-4.469v-2.316h4.185v-0.887h-4.185v-2.575h4.645V58.08H173.64z"/>
	</g>
	<g enable-background="new    ">
		<path fill="#FFFFFF" d="M90.587,45.492l2.663,6.934h0.989l2.838-6.934h-1.045l-0.809,2.1h-2.899l-0.762-2.1H90.587z M92.588,48.34
			h2.351l-0.724,1.92c-0.221,0.583-0.385,1.063-0.492,1.438c-0.088-0.445-0.213-0.886-0.374-1.325L92.588,48.34z"/>
	</g>
	<g enable-background="new    ">
		<path fill="#FFFFFF" d="M97.946,45.492v6.934h0.941l3.642-5.444v5.444h0.88v-6.934h-0.941l-3.642,5.45v-5.45H97.946z"/>
	</g>
	<g enable-background="new    ">
		<path fill="#FFFFFF" d="M107.256,45.492v6.116h-2.285v0.818h5.496v-0.818h-2.294v-6.116H107.256z"/>
	</g>
	<g enable-background="new    ">
		<path fill="#FFFFFF" d="M110.754,48.87c0,1.15,0.309,2.052,0.927,2.703c0.618,0.651,1.416,0.977,2.393,0.977
			c0.64,0,1.217-0.153,1.731-0.459c0.514-0.305,0.906-0.732,1.175-1.279c0.27-0.548,0.405-1.168,0.405-1.862
			c0-0.703-0.142-1.332-0.426-1.887c-0.284-0.555-0.686-0.975-1.206-1.26c-0.52-0.285-1.082-0.428-1.684-0.428
			c-0.653,0-1.236,0.158-1.75,0.473c-0.514,0.316-0.904,0.746-1.168,1.292C110.887,47.684,110.754,48.261,110.754,48.87z
			 M111.7,48.855c0-0.835,0.225-1.494,0.674-1.974c0.449-0.481,1.013-0.722,1.691-0.722c0.691,0,1.259,0.243,1.705,0.728
			c0.446,0.486,0.67,1.175,0.67,2.067c0,0.565-0.095,1.058-0.286,1.478c-0.191,0.422-0.47,0.748-0.837,0.98
			c-0.368,0.231-0.78,0.347-1.237,0.347c-0.65,0-1.208-0.223-1.677-0.669C111.934,50.644,111.7,49.899,111.7,48.855z"/>
	</g>
	<g enable-background="new    ">
		<path fill="#FFFFFF" d="M118.59,45.492v6.934h0.918v-6.934H118.59z"/>
	</g>
	<g enable-background="new    ">
		<path fill="#FFFFFF" d="M120.653,45.492v6.934h0.941l3.642-5.444v5.444h0.88v-6.934h-0.941l-3.642,5.45v-5.45H120.653z"/>
	</g>
	<g enable-background="new    ">
		<path fill="#FFFFFF" d="M128.218,45.492v6.934h5.014v-0.818h-4.096v-2.124h3.836v-0.813h-3.836v-2.36h4.257v-0.819H128.218z"/>
	</g>
	<g enable-background="new    ">
		<path fill="#FFFFFF" d="M133.561,47.573v0.856h2.615v-0.856H133.561z"/>
	</g>
	<g enable-background="new    ">
		<path fill="#FFFFFF" d="M138.09,45.492v6.934h0.918v-6.116h3.415v-0.819H138.09z"/>
	</g>
	<g enable-background="new    ">
		<path fill="#FFFFFF" d="M143.092,45.492l2.663,6.934h0.989l2.837-6.934h-1.045l-0.809,2.1h-2.899l-0.762-2.1H143.092z
			 M145.093,48.34h2.351l-0.723,1.92c-0.221,0.583-0.385,1.063-0.492,1.438c-0.088-0.445-0.212-0.886-0.373-1.325L145.093,48.34z"/>
	</g>
	<g enable-background="new    ">
		<path fill="#FFFFFF" d="M150.422,45.492v6.934h2.602c0.53,0,0.955-0.07,1.275-0.21c0.32-0.14,0.57-0.356,0.752-0.648
			c0.181-0.292,0.272-0.597,0.272-0.916c0-0.297-0.08-0.575-0.241-0.837c-0.161-0.262-0.404-0.473-0.728-0.634
			c0.419-0.123,0.741-0.333,0.967-0.629c0.225-0.297,0.338-0.647,0.338-1.05c0-0.325-0.069-0.627-0.205-0.906
			c-0.137-0.279-0.307-0.494-0.509-0.645c-0.202-0.152-0.455-0.266-0.759-0.343c-0.304-0.077-0.677-0.116-1.119-0.116H150.422z
			 M151.339,49.513h1.5c0.406,0,0.698,0.027,0.875,0.08c0.234,0.069,0.409,0.184,0.527,0.345c0.118,0.161,0.177,0.362,0.177,0.605
			c0,0.231-0.055,0.433-0.166,0.608c-0.11,0.175-0.268,0.295-0.473,0.36c-0.205,0.065-0.557,0.097-1.055,0.097h-1.386V49.513z
			 M151.339,46.311h1.727c0.297,0,0.505,0.011,0.625,0.033c0.211,0.037,0.387,0.102,0.53,0.189c0.142,0.089,0.259,0.217,0.35,0.386
			c0.091,0.169,0.138,0.363,0.138,0.584c0,0.258-0.066,0.483-0.198,0.673c-0.133,0.191-0.317,0.325-0.552,0.402
			c-0.235,0.077-0.573,0.116-1.015,0.116h-1.604V46.311z"/>
	</g>
	<g enable-background="new    ">
		<path fill="#FFFFFF" d="M156.892,45.492v6.934h5.014v-0.818h-4.097v-2.124h3.836v-0.813h-3.836v-2.36h4.258v-0.819H156.892z"/>
	</g>
	<g enable-background="new    ">
		<path fill="#FFFFFF" d="M162.812,45.492v6.934h0.918v-6.116h3.415v-0.819H162.812z"/>
	</g>
	<g enable-background="new    ">
		<path fill="#FFFFFF" d="M168.537,45.492v6.934h0.918v-6.116h3.415v-0.819H168.537z"/>
	</g>
	<g enable-background="new    ">
		<path fill="#FFFFFF" d="M174.32,45.492v6.934h5.013v-0.818h-4.095v-2.124h3.836v-0.813h-3.836v-2.36h4.256v-0.819H174.32z"/>
	</g>
	<g id="g22" transform="matrix(1,0,0,0.96620681,0,3.9055776)">
		<g>
			<defs>
				<rect id="SVGID_1_" x="-33.75" y="-16.828" width="337.5" height="195.656"/>
			</defs>
			<clipPath id="SVGID_2_">
				<use xlink:href="#SVGID_1_"  overflow="visible"/>
			</clipPath>
			<g id="g24" clip-path="url(#SVGID_2_)">
				<g id="g30" transform="translate(96.2583,97.6299)">
					<path id="path32" inkscape:connector-curvature="0" fill="#F39200" d="M0,0h9.904c3.541,0,5.886,3.206,5.886,7.081
						c0,4.02-2.871,7.035-6.172,7.035H0V0z M-4.306-16.029v33.972H9.856c5.981,0,10.287-5.503,10.287-10.862
						c0-5.599-4.018-10.909-9.999-10.909H0v-12.201H-4.306z"/>
				</g>
				<g id="g34" transform="translate(133.0396,110.54)">
					<path id="path36" inkscape:connector-curvature="0" fill="#F39200" d="M0,0l-6.286-15.62H6.096L0,0z M-15.668-28.86
						L-1.762,4.954h3.525L15.622-28.86h-4.573l-4,9.906H-7.143l-3.954-9.906H-15.668z"/>
				</g>
				<g id="g38" transform="translate(156.2734,81.6011)">
					<path id="path40" inkscape:connector-curvature="0" fill="#F39200" d="M0,0v33.52h4.248V3.777h18.695V0H0z"/>
				</g>
			</g>
		</g>
	</g>
	
		<path id="path4769" inkscape:connector-curvature="0" fill="#FFFFFF" fill-opacity="0.9412" stroke="#FFFFFF" stroke-width="1.0067" d="
		M90.918,72.64l88.9-0.211"/>
</g>
</svg>
