<?xml version="1.0" encoding="UTF-8" standalone="no"?>
<!-- Created with Inkscape (http://www.inkscape.org/) -->

<svg
   xmlns:dc="http://purl.org/dc/elements/1.1/"
   xmlns:cc="http://creativecommons.org/ns#"
   xmlns:rdf="http://www.w3.org/1999/02/22-rdf-syntax-ns#"
   xmlns:svg="http://www.w3.org/2000/svg"
   xmlns="http://www.w3.org/2000/svg"
   xmlns:sodipodi="http://sodipodi.sourceforge.net/DTD/sodipodi-0.dtd"
   xmlns:inkscape="http://www.inkscape.org/namespaces/inkscape"
   id="svg2"
   version="1.1"
   inkscape:version="0.91 r"
   xml:space="preserve"
   width="137.1875"
   height="101.8"
   viewBox="0 0 137.1875 101.8"
   sodipodi:docname="logoPal2.svg"><metadata
     id="metadata8"><rdf:RDF><cc:Work
         rdf:about=""><dc:format>image/svg+xml</dc:format><dc:type
           rdf:resource="http://purl.org/dc/dcmitype/StillImage" /><dc:title></dc:title></cc:Work></rdf:RDF></metadata><defs
     id="defs6"><clipPath
       clipPathUnits="userSpaceOnUse"
       id="clipPath26"><path
         d="M 0,162 270,162 270,0 0,0 0,162 Z"
         id="path28"
         inkscape:connector-curvature="0" /></clipPath></defs><sodipodi:namedview
     pagecolor="#ffffff"
     bordercolor="#666666"
     borderopacity="1"
     objecttolerance="10"
     gridtolerance="10"
     guidetolerance="10"
     inkscape:pageopacity="0"
     inkscape:pageshadow="2"
     inkscape:window-width="1853"
     inkscape:window-height="1056"
     id="namedview4"
     showgrid="false"
     inkscape:snap-grids="false"
     inkscape:snap-page="true"
     inkscape:zoom="9.0275046"
     inkscape:cx="52.199408"
     inkscape:cy="50.900002"
     inkscape:window-x="67"
     inkscape:window-y="24"
     inkscape:window-maximized="1"
     inkscape:current-layer="g10"
     fit-margin-top="-50.7"
     fit-margin-left="-100"
     fit-margin-right="-100"
     fit-margin-bottom="-50" /><g
     id="g10"
     inkscape:groupmode="layer"
     inkscape:label="Carte d'affaires"
     transform="matrix(1.25,0,0,-1.25,-100,151.8)"><path
       d="m 0,0 269.75,0 0,162 L 0,162 0,0 Z"
       style="fill:none;fill-opacity:1;fill-rule:nonzero;stroke:none"
       id="path12"
       inkscape:connector-curvature="0" /><text
       transform="matrix(1,0,0,-1,90.8823,58.0791)"
       style="font-variant:normal;font-weight:500;font-stretch:normal;font-size:10.5678997px;font-family:Raleway;-inkscape-font-specification:Raleway-Medium;writing-mode:lr-tb;fill:#ffffff;fill-opacity:1;fill-rule:nonzero;stroke:none;"
       id="text14"><tspan
         x="0 6.5626659 14.393479 20.88217 27.360292 30.107946 37.716835 44.226662 52.057476 58.503895 65.447006 72.612038 79.174706 81.922363"
         y="0"
         sodipodi:role="line"
         id="tspan16">PHYSIOTHÉRAPIE</tspan></text>
<text
       transform="matrix(1,0,0,-1,90.6021,45.4912)"
       style="font-variant:normal;font-weight:200;font-stretch:normal;font-size:9.68719959px;font-family:Raleway;-inkscape-font-specification:Raleway-ExtraLight;writing-mode:lr-tb;fill:#ffffff;fill-opacity:1;fill-rule:nonzero;stroke:none;"
       id="text18"><tspan
         x="0 6.6066704 14.143312 19.684391 27.085411 29.313467 36.850109 42.65274 46.779488 52.504623 59.111294 65.524223 71.501221 77.226357 82.951492"
         y="0"
         sodipodi:role="line"
         id="tspan20">ANTOINE-LABELLE</tspan></text>
<g
       id="g22"
       style="fill:#f39200;fill-opacity:1"
       transform="matrix(1,0,0,0.96620681,0,3.9055776)"><g
         id="g24"
         clip-path="url(#clipPath26)"
         style="fill:#f39200;fill-opacity:1"><g
           id="g30"
           transform="translate(96.2583,97.6299)"
           style="fill:#f39200;fill-opacity:1"><path
             d="m 0,0 9.904,0 c 3.541,0 5.886,3.206 5.886,7.081 0,4.02 -2.871,7.035 -6.172,7.035 L 0,14.116 0,0 Z m -4.306,-16.029 0,33.972 14.162,0 c 5.981,0 10.287,-5.503 10.287,-10.862 0,-5.599 -4.018,-10.909 -9.999,-10.909 l -10.144,0 0,-12.201 -4.306,0 z"
             style="fill:#f39200;fill-opacity:1;fill-rule:nonzero;stroke:none"
             id="path32"
             inkscape:connector-curvature="0" /></g><g
           id="g34"
           transform="translate(133.0396,110.54)"
           style="fill:#f39200;fill-opacity:1"><path
             d="m 0,0 -6.286,-15.62 12.382,0 L 0,0 Z m -15.668,-28.86 13.906,33.814 3.525,0 13.859,-33.814 -4.572,0 -4.001,9.906 -14.192,0 -3.954,-9.906 -4.571,0 z"
             style="fill:#f39200;fill-opacity:1;fill-rule:nonzero;stroke:none"
             id="path36"
             inkscape:connector-curvature="0" /></g><g
           id="g38"
           transform="translate(156.2734,81.6011)"
           style="fill:#f39200;fill-opacity:1"><path
             d="m 0,0 0,33.52 4.248,0 0,-29.743 18.695,0 L 22.943,0 0,0 Z"
             style="fill:#f39200;fill-opacity:1;fill-rule:nonzero;stroke:none"
             id="path40"
             inkscape:connector-curvature="0" /></g></g></g><path
       style="opacity:1;fill:#ffffff;fill-opacity:0.94117647;fill-rule:evenodd;stroke:#ffffff;stroke-width:1.00667429px;stroke-linecap:butt;stroke-linejoin:miter;stroke-opacity:1"
       d="M 90.917737,72.64066 179.818,72.428943"
       id="path4769"
       inkscape:connector-curvature="0" /></g></svg>